# Blender v2.77 (sub 0) OBJ File: ''
# www.blender.org
v 2.000000 0.000000 -2.000000
v 2.000000 0.000000 2.000000
v -2.000000 0.000000 2.000000
v -2.000000 0.000000 -2.000000
v 0.000000 2.000000 0.000001
v 1.999999 0.000000 2.000000
v -2.000000 0.000000 2.000000
v -2.000000 0.000000 -2.000000
vt 1.0000 0.0000
vt 0.0000 1.0000
vt 0.0000 0.0000
vt 0.0000 0.0000
vt 1.0000 1.0000
vt 0.0000 1.0000
vt 1.0000 0.0000
vt 0.0000 1.0000
vt 0.0000 0.0000
vt 0.0000 1.0000
vt 1.0000 0.0000
vt 0.0000 0.0000
vt 1.0000 1.0000
vt 0.0000 1.0000
vt 1.0000 1.0000
vt 1.0000 0.0000
vt 1.0000 1.0000
vt 1.0000 0.0000
vt 1.0000 1.0000
vt 1.0000 0.0000
vn 0.0000 -1.0000 0.0000
vn -0.0000 0.7071 0.7071
vn 0.7071 0.7071 0.0000
vn 0.0000 1.0000 0.0000
vn -0.4082 0.8165 -0.4082
vn -0.7071 0.7071 -0.0000
vn 0.3244 0.8111 0.4867
vn 0.0000 0.7071 -0.7071
s off
f 2/1/1 4/2/1 1/3/1
f 5/4/2 7/5/2 6/6/2
f 5/7/3 2/8/3 1/3/3
f 2/9/4 7/5/4 3/10/4
f 7/11/1 4/2/1 3/12/1
f 5/4/5 4/13/5 8/14/5
f 2/1/1 3/15/1 4/2/1
f 5/4/6 8/16/6 7/5/6
f 5/7/7 6/17/7 2/8/7
f 2/9/1 6/18/1 7/5/1
f 7/11/1 8/19/1 4/2/1
f 5/4/8 1/20/8 4/13/8
