# Blender v2.77 (sub 0) OBJ File: ''
# www.blender.org
v -3.000000 34.000004 -17.999994
v -2.999998 33.999996 18.000006
v -3.499998 33.999996 18.000006
v -3.500000 34.000004 -17.999994
v -3.000001 -36.000004 19.999994
v -2.999997 35.999996 20.000006
v 3.449413 35.999996 20.000006
v 2.999999 -36.000004 19.999994
v 3.449409 -36.000004 19.999994
v -2.750000 -34.250004 18.249994
v -3.000000 -34.000004 17.999994
v -2.999999 12.499997 18.000002
v -2.749999 12.749997 18.250002
v -2.749998 34.249996 18.250006
v -2.749998 14.249997 18.250002
v -2.999998 14.499997 18.000002
v -2.999998 33.999996 18.000006
v -3.499998 33.999996 18.000006
v -2.999998 33.999996 18.000006
v -2.999998 14.499997 18.000002
v -3.499998 14.499997 18.000002
v -2.999999 12.499997 18.000002
v -3.000000 -34.000004 17.999994
v -3.500000 -34.000004 17.999994
v -3.499999 12.499997 18.000002
v -3.500002 -33.999996 -18.000006
v -3.000002 -33.999996 -18.000006
v -3.000001 12.500003 -17.999998
v -3.500001 12.500003 -17.999998
v 3.874999 -36.000004 22.249994
v 3.875003 38.249996 22.250006
v 3.000003 38.249996 22.250006
v 2.999999 -36.000004 22.249994
v 3.000001 38.250004 -22.249994
v 3.000003 38.249996 22.250006
v 3.875003 38.249996 22.250006
v 3.875001 38.250004 -22.249994
v 3.449411 36.000004 -19.999994
v 3.449413 35.999996 20.000006
v -2.999997 35.999996 20.000006
v -2.999999 36.000004 -19.999994
v 2.999997 -35.999996 -20.000006
v -3.000003 -35.999996 -20.000006
v -3.000001 -36.000004 19.999994
v 2.999999 -36.000004 19.999994
v 2.999997 -35.999996 -22.250006
v 3.000001 38.250004 -22.249994
v 3.875001 38.250004 -22.249994
v 3.874997 -35.999996 -22.250006
v 4.943850 -37.193851 -22.250006
v 4.943852 -37.193859 22.249994
v 4.813541 -37.250004 22.249994
v 4.813539 -37.249996 -22.250006
v 4.943852 -36.056152 22.249994
v 4.943850 -36.056145 -22.250006
v 4.813539 -35.999996 -22.250006
v 4.813541 -36.000004 22.249994
v 3.907811 -39.250004 22.249994
v 3.907809 -39.249996 -22.250006
v 3.999997 -39.157810 -22.250006
v 3.999999 -39.157818 22.249994
v 3.749997 -40.067707 -22.250006
v 3.749999 -40.067715 22.249994
v 3.567707 -40.250004 22.249994
v 3.567705 -40.249996 -22.250006
v 3.999999 -39.157818 22.249994
v 3.999999 -37.250004 22.249994
v 3.749999 -39.250004 22.249994
v 3.907811 -39.250004 22.249994
v 3.749999 -40.067715 22.249994
v 3.567707 -40.250004 22.249994
v 2.999999 -40.250004 22.249994
v 2.999999 -36.000004 22.249994
v 4.813541 -36.000004 22.249994
v 4.943852 -36.056152 22.249994
v 5.000000 -36.186462 22.249994
v 5.000000 -37.063545 22.249994
v 4.943852 -37.193859 22.249994
v 4.813541 -37.250004 22.249994
v 2.999999 -36.000004 22.249994
v 4.813541 -36.000004 22.249994
v 4.813539 -35.999996 -22.250006
v 2.999997 -35.999996 -22.250006
v 4.813539 -37.249996 -22.250006
v 4.813541 -37.250004 22.249994
v 3.999999 -37.250004 22.249994
v 3.999997 -37.249996 -22.250006
v 3.999999 -37.250004 22.249994
v 3.999999 -39.157818 22.249994
v 3.999997 -39.157810 -22.250006
v 3.999997 -37.249996 -22.250006
v 3.907809 -39.249996 -22.250006
v 3.907811 -39.250004 22.249994
v 3.749999 -39.250004 22.249994
v 3.749997 -39.249996 -22.250006
v 3.749999 -39.250004 22.249994
v 3.749999 -40.067715 22.249994
v 3.749997 -40.067707 -22.250006
v 3.749997 -39.249996 -22.250006
v 3.567705 -40.249996 -22.250006
v 3.567707 -40.250004 22.249994
v 2.999999 -40.250004 22.249994
v 2.999997 -40.249996 -22.250006
v -3.500000 -33.000004 16.999994
v -3.500002 -32.999996 -17.000006
v -5.000002 -32.999996 -17.000006
v -5.000000 -33.000004 16.999994
v -4.999999 11.499997 17.000002
v -5.000001 11.500003 -16.999998
v -3.500001 11.500003 -16.999998
v -3.499999 11.499997 17.000002
v -3.499998 15.499997 17.000002
v -3.500000 15.500003 -16.999998
v -5.000001 15.500003 -16.999998
v -4.999999 15.499997 17.000002
v -4.999998 32.999996 17.000006
v -5.000000 33.000004 -16.999994
v -3.500000 33.000004 -16.999994
v -3.499998 32.999996 17.000006
v -3.500000 15.500003 -16.999998
v -3.500000 33.000004 -16.999994
v -5.000000 33.000004 -16.999994
v -5.000001 15.500003 -16.999998
v -4.999999 15.499997 17.000002
v -4.999998 32.999996 17.000006
v -3.499998 32.999996 17.000006
v -3.499998 15.499997 17.000002
v -3.500002 -32.999996 -17.000006
v -3.500001 11.500003 -16.999998
v -5.000001 11.500003 -16.999998
v -5.000002 -32.999996 -17.000006
v -5.000000 -33.000004 16.999994
v -4.999999 11.499997 17.000002
v -3.499999 11.499997 17.000002
v -3.500000 -33.000004 16.999994
v -3.499999 12.499997 18.000002
v -3.500000 -34.000004 17.999994
v -3.499999 11.499997 17.000002
v -3.500001 11.500003 -16.999998
v -3.500001 12.500003 -17.999998
v -3.500002 -32.999996 -17.000006
v -3.500002 -33.999996 -18.000006
v -3.500000 -33.000004 16.999994
v -2.999999 12.499997 18.000002
v -3.499999 12.499997 18.000002
v -3.500001 12.500003 -17.999998
v -3.000001 12.500003 -17.999998
v -2.750001 12.750003 -18.249998
v -2.749999 12.749997 18.250002
v -2.999999 12.499997 18.000002
v -3.000001 12.500003 -17.999998
v -2.749998 14.249997 18.250002
v -2.750000 14.250003 -18.249998
v -3.000000 14.500003 -17.999998
v -2.999998 14.499997 18.000002
v -3.500000 14.500003 -17.999998
v -3.499998 14.499997 18.000002
v -2.999998 14.499997 18.000002
v -3.000000 14.500003 -17.999998
v -2.750000 14.250003 -18.249998
v -2.750000 34.250004 -18.249994
v -3.000000 34.000004 -17.999994
v -3.000000 14.500003 -17.999998
v -3.000003 -35.999996 -20.000006
v -2.999999 36.000004 -19.999994
v -2.749999 35.750004 -19.749994
v -2.750003 -35.749996 -19.750006
v -3.500000 14.500003 -17.999998
v -3.000000 14.500003 -17.999998
v -3.000000 34.000004 -17.999994
v -3.500000 34.000004 -17.999994
v -2.750003 -35.749996 -19.750006
v -2.750001 -35.750004 19.749994
v -3.000001 -36.000004 19.999994
v -3.000003 -35.999996 -20.000006
v -2.750000 -34.250004 18.249994
v -2.750002 -34.249996 -18.250006
v -3.000002 -33.999996 -18.000006
v -3.000000 -34.000004 17.999994
v -3.500002 -33.999996 -18.000006
v -3.500000 -34.000004 17.999994
v -3.000000 -34.000004 17.999994
v -3.000002 -33.999996 -18.000006
v -2.750001 -35.750004 19.749994
v -2.749997 35.749996 19.750006
v -2.999997 35.999996 20.000006
v -3.000001 -36.000004 19.999994
v -2.750002 -34.249996 -18.250006
v -2.750001 12.750003 -18.249998
v -3.000001 12.500003 -17.999998
v -3.000002 -33.999996 -18.000006
v -2.999999 36.000004 -19.999994
v -2.999997 35.999996 20.000006
v -2.749997 35.749996 19.750006
v -2.749999 35.750004 -19.749994
v -2.999998 33.999996 18.000006
v -3.000000 34.000004 -17.999994
v -2.750000 34.250004 -18.249994
v -2.749998 34.249996 18.250006
v 3.449407 -35.999996 -20.000006
v 3.449411 36.000004 -19.999994
v -2.999999 36.000004 -19.999994
v 2.999997 -35.999996 -20.000006
v -3.000003 -35.999996 -20.000006
v 3.874999 -36.000004 21.999994
v 3.749999 -36.000004 21.749994
v 3.875003 37.999996 22.000006
v 3.750003 37.749996 21.750006
v 3.875001 38.000004 -21.999994
v 3.750001 37.750004 -21.749994
v 3.750003 36.999996 21.000006
v 3.750001 37.000004 -20.999994
v 3.875003 36.749996 20.750006
v 3.875001 36.750004 -20.749994
v 3.875003 36.425587 20.425596
v 3.875001 36.425594 -20.425585
v 3.814821 36.214939 20.214945
v 3.814819 36.214947 -20.214933
v 3.660064 36.060177 20.060188
v 3.660062 36.060184 -20.060175
v 3.449413 35.999996 20.000006
v 3.449411 36.000004 -19.999994
v 3.449413 35.999996 20.000006
v 3.660064 36.060177 20.060188
v 3.449409 -36.000004 19.999994
v 3.660060 -36.000004 20.060177
v 3.814817 -36.000004 20.214933
v 3.874999 -36.000004 20.425585
v 3.874999 -36.000004 20.749994
v 3.749999 -36.000004 20.999994
v 3.449407 -35.999996 -20.000006
v 3.660058 -35.999996 -20.060186
v 3.449411 36.000004 -19.999994
v 3.660062 36.060184 -20.060175
v 3.814815 -35.999996 -20.214945
v 3.874997 -35.999996 -20.425596
v 3.874997 -35.999996 -20.750006
v 3.749997 -35.999996 -21.000006
v 3.749997 -35.999996 -21.750006
v 3.874997 -35.999996 -22.000006
v 3.874997 -35.999996 -22.250006
v 3.875001 38.250004 -22.249994
v 3.875003 38.249996 22.250006
v 3.874999 -36.000004 22.249994
v -2.750003 -35.749996 -19.750006
v -2.749999 35.750004 -19.749994
v -2.750001 12.750003 -18.249998
v -2.750002 -34.249996 -18.250006
v -2.750000 -34.250004 18.249994
v -2.750001 -35.750004 19.749994
v -2.749999 12.749997 18.250002
v -2.749998 14.249997 18.250002
v -2.750000 14.250003 -18.249998
v -2.750000 34.250004 -18.249994
v -2.749997 35.749996 19.750006
v -2.749998 34.249996 18.250006
v -3.500000 34.000004 -17.999994
v -3.500000 33.000004 -16.999994
v -3.500000 15.500003 -16.999998
v -3.499998 33.999996 18.000006
v -3.499998 32.999996 17.000006
v -3.499998 14.499997 18.000002
v -3.499998 15.499997 17.000002
v -3.500000 14.500003 -17.999998
v 3.567705 -40.249996 -22.250006
v 2.999997 -40.249996 -22.250006
v 2.999997 -35.999996 -22.250006
v 3.749997 -40.067707 -22.250006
v 3.749997 -39.249996 -22.250006
v 3.907809 -39.249996 -22.250006
v 3.999997 -39.157810 -22.250006
v 3.999997 -37.249996 -22.250006
v 4.813539 -37.249996 -22.250006
v 4.943850 -37.193851 -22.250006
v 4.999998 -37.063538 -22.250006
v 4.999998 -36.186455 -22.250006
v 4.943850 -36.056145 -22.250006
v 4.813539 -35.999996 -22.250006
v 4.943852 -37.193859 22.249994
v 4.943850 -37.193851 -22.250006
v 4.999998 -37.063538 -22.250006
v 5.000000 -37.063545 22.249994
v 5.000000 -36.186462 22.249994
v 4.999998 -36.186455 -22.250006
v 4.943850 -36.056145 -22.250006
v 4.943852 -36.056152 22.249994
vt 0.2600 0.0000
vt 0.2600 -1.0000
vt 0.2461 -1.0000
vt 0.2461 0.0000
vt 0.0896 -1.0000
vt 0.0896 0.0000
vt 0.0000 0.0000
vt 0.0062 -1.0000
vt 0.0000 -1.0000
vt 0.3322 -0.9236
vt 0.3354 -0.9204
vt 0.3354 -0.3280
vt 0.3322 -0.3248
vt 0.3322 -0.0510
vt 0.3322 -0.3057
vt 0.3354 -0.3025
vt 0.3354 -0.0541
vt 0.8980 0.0000
vt 0.8906 0.0000
vt 0.8906 -0.2868
vt 0.8980 -0.2868
vt 0.8906 -0.3162
vt 0.8906 -1.0000
vt 0.8980 -1.0000
vt 0.8980 -0.3162
vt 0.8980 -1.0000
vt 0.8906 -1.0000
vt 0.8906 -0.3162
vt 0.8980 -0.3162
vt 0.9336 -1.0000
vt 0.9336 0.0000
vt 0.9454 0.0000
vt 0.9454 -1.0000
vt 0.9531 0.0000
vt 0.9531 -0.7625
vt 0.9681 -0.7625
vt 0.9681 0.0000
vt 0.2060 -0.0341
vt 0.2060 -0.6400
vt 0.1083 -0.6400
vt 0.1083 -0.0341
vt 0.1992 -0.0341
vt 0.1083 -0.0341
vt 0.1083 -0.6400
vt 0.1992 -0.6400
vt 0.9454 -1.0000
vt 0.9454 0.0000
vt 0.9336 0.0000
vt 0.9336 -1.0000
vt 0.8481 -0.9611
vt 0.2812 -0.9611
vt 0.2812 -0.9618
vt 0.8481 -0.9618
vt 0.2812 -0.9466
vt 0.8481 -0.9466
vt 0.8481 -0.9459
vt 0.2812 -0.9459
vt 0.2812 -0.9873
vt 0.8481 -0.9873
vt 0.8481 -0.9861
vt 0.2812 -0.9861
vt 0.8481 -0.9977
vt 0.2812 -0.9977
vt 0.2812 -1.0000
vt 0.8481 -1.0000
vt 0.3750 -0.3956
vt 0.3750 -0.3672
vt 0.3787 -0.3969
vt 0.3764 -0.3969
vt 0.3787 -0.4091
vt 0.3814 -0.4118
vt 0.3899 -0.4118
vt 0.3899 -0.3486
vt 0.3629 -0.3486
vt 0.3610 -0.3494
vt 0.3601 -0.3514
vt 0.3601 -0.3644
vt 0.3610 -0.3664
vt 0.3629 -0.3672
vt 0.1992 -0.6741
vt 0.2267 -0.6741
vt 0.2267 0.0000
vt 0.1992 0.0000
vt 0.9842 0.0000
vt 0.9842 -0.7625
vt 0.9703 -0.7625
vt 0.9703 0.0000
vt 0.2812 -0.9618
vt 0.2812 -0.9861
vt 0.8481 -0.9861
vt 0.8481 -0.9618
vt 0.8481 -0.9873
vt 0.2812 -0.9873
vt 0.2812 -0.9873
vt 0.8481 -0.9873
vt 0.2812 -0.9873
vt 0.2812 -0.9977
vt 0.8481 -0.9977
vt 0.8481 -0.9873
vt 0.2417 0.0000
vt 0.2417 -0.5706
vt 0.2344 -0.5706
vt 0.2344 0.0000
vt 0.9253 -0.4311
vt 0.9253 0.0000
vt 0.9062 0.0000
vt 0.9062 -0.4311
vt 0.9062 -0.4311
vt 0.9062 0.0000
vt 0.9253 0.0000
vt 0.9253 -0.4311
vt 0.9253 -0.4311
vt 0.9253 0.0000
vt 0.9062 0.0000
vt 0.9062 -0.4311
vt 0.9062 -0.4311
vt 0.9062 0.0000
vt 0.9253 0.0000
vt 0.9253 -0.4311
vt 0.8594 -0.2652
vt 0.8594 0.0000
vt 0.8821 0.0000
vt 0.8821 -0.2652
vt 0.8821 -0.2652
vt 0.8821 0.0000
vt 0.8594 0.0000
vt 0.8594 -0.2652
vt 0.8594 -1.0000
vt 0.8594 -0.3258
vt 0.8821 -0.3258
vt 0.8821 -1.0000
vt 0.8821 -1.0000
vt 0.8821 -0.3258
vt 0.8594 -0.3258
vt 0.8594 -1.0000
vt 0.3354 -0.3280
vt 0.3354 -0.9204
vt 0.3481 -0.3408
vt 0.7812 -0.3408
vt 0.7940 -0.3280
vt 0.7812 -0.9076
vt 0.7940 -0.9204
vt 0.3481 -0.9076
vt 0.2600 -1.0000
vt 0.2461 -1.0000
vt 0.2461 0.0000
vt 0.2600 0.0000
vt 0.7972 -0.3248
vt 0.3322 -0.3248
vt 0.3354 -0.3280
vt 0.7940 -0.3280
vt 0.3322 -0.3057
vt 0.7972 -0.3057
vt 0.7940 -0.3025
vt 0.3354 -0.3025
vt 0.2461 0.0000
vt 0.2461 -1.0000
vt 0.2600 -1.0000
vt 0.2600 0.0000
vt 0.7972 -0.3057
vt 0.7972 -0.0510
vt 0.7940 -0.0541
vt 0.7940 -0.3025
vt 0.8195 -0.9459
vt 0.8195 -0.0287
vt 0.8163 -0.0318
vt 0.8163 -0.9427
vt 0.8980 -0.2868
vt 0.8906 -0.2868
vt 0.8906 0.0000
vt 0.8980 0.0000
vt 0.8163 -0.9427
vt 0.3131 -0.9427
vt 0.3099 -0.9459
vt 0.8195 -0.9459
vt 0.3322 -0.9236
vt 0.7972 -0.9236
vt 0.7940 -0.9204
vt 0.3354 -0.9204
vt 0.2461 0.0000
vt 0.2461 -1.0000
vt 0.2600 -1.0000
vt 0.2600 0.0000
vt 0.3131 -0.9427
vt 0.3131 -0.0318
vt 0.3099 -0.0287
vt 0.3099 -0.9459
vt 0.7972 -0.9236
vt 0.7972 -0.3248
vt 0.7940 -0.3280
vt 0.7940 -0.9204
vt 0.8195 -0.0287
vt 0.3099 -0.0287
vt 0.3131 -0.0318
vt 0.8163 -0.0318
vt 0.3354 -0.0541
vt 0.7940 -0.0541
vt 0.7972 -0.0510
vt 0.3322 -0.0510
vt 0.0000 -1.0000
vt 0.0000 0.0000
vt 0.0896 0.0000
vt 0.0062 -1.0000
vt 0.0896 -1.0000
vt 0.2844 -0.9459
vt 0.2876 -0.9459
vt 0.2844 -0.0032
vt 0.2876 -0.0064
vt 0.8449 -0.0032
vt 0.8418 -0.0064
vt 0.2972 -0.0159
vt 0.8322 -0.0159
vt 0.3004 -0.0191
vt 0.8290 -0.0191
vt 0.3045 -0.0232
vt 0.8249 -0.0232
vt 0.3072 -0.0259
vt 0.8222 -0.0259
vt 0.3091 -0.0279
vt 0.8202 -0.0279
vt 0.3099 -0.0287
vt 0.8195 -0.0287
vt 0.3099 -0.0287
vt 0.3091 -0.0279
vt 0.3099 -0.9459
vt 0.3091 -0.9459
vt 0.3072 -0.9459
vt 0.3045 -0.9459
vt 0.3004 -0.9459
vt 0.2972 -0.9459
vt 0.8195 -0.9459
vt 0.8202 -0.9459
vt 0.8195 -0.0287
vt 0.8202 -0.0279
vt 0.8222 -0.9459
vt 0.8249 -0.9459
vt 0.8290 -0.9459
vt 0.8322 -0.9459
vt 0.8418 -0.9459
vt 0.8449 -0.9459
vt 0.8481 -0.9459
vt 0.8481 0.0000
vt 0.2812 0.0000
vt 0.2812 -0.9459
vt 0.8163 -0.9427
vt 0.8163 -0.0318
vt 0.7972 -0.3248
vt 0.7972 -0.9236
vt 0.3322 -0.9236
vt 0.3131 -0.9427
vt 0.3322 -0.3248
vt 0.3322 -0.3057
vt 0.7972 -0.3057
vt 0.7972 -0.0510
vt 0.3131 -0.0318
vt 0.3322 -0.0510
vt 0.7940 -0.0541
vt 0.7812 -0.0669
vt 0.7812 -0.2898
vt 0.3354 -0.0541
vt 0.3481 -0.0669
vt 0.3354 -0.3025
vt 0.3481 -0.2898
vt 0.7940 -0.3025
vt 0.3814 -0.4118
vt 0.3899 -0.4118
vt 0.3899 -0.3486
vt 0.3787 -0.4091
vt 0.3787 -0.3969
vt 0.3764 -0.3969
vt 0.3750 -0.3956
vt 0.3750 -0.3672
vt 0.3629 -0.3672
vt 0.3610 -0.3664
vt 0.3601 -0.3644
vt 0.3601 -0.3514
vt 0.3610 -0.3494
vt 0.3629 -0.3486
vt 0.2812 -0.9611
vt 0.8481 -0.9611
vt 0.8481 -0.9594
vt 0.2812 -0.9594
vt 0.2812 -0.9482
vt 0.8481 -0.9482
vt 0.8481 -0.9466
vt 0.2812 -0.9466
vn 0.0000 -1.0000 -0.0000
vn 0.0000 0.0000 -1.0000
vn 0.7071 0.0000 -0.7071
vn 0.0000 -0.0000 1.0000
vn 0.0000 1.0000 0.0000
vn 0.3957 -0.9184 -0.0000
vn 0.3957 0.9184 0.0000
vn 0.7071 -0.7071 -0.0000
vn 1.0000 0.0000 -0.0000
vn 0.7071 0.7071 0.0000
vn 0.7071 -0.0000 0.7071
vn 0.8944 0.0000 -0.4472
vn 0.8944 -0.4472 -0.0000
vn 0.8944 0.4472 0.0000
vn 0.9615 -0.2747 -0.0000
vn 0.2747 -0.9615 -0.0000
vn 0.2747 0.0000 -0.9615
vn 0.9615 -0.0000 -0.2747
vn 0.8944 -0.0000 0.4472
vn 0.2747 -0.0000 0.9615
vn 0.9615 -0.0000 0.2747
vn 0.9184 -0.3957 -0.0000
vn 0.9184 0.3957 0.0000
s off
f 1/1/1 2/2/1 3/3/1
f 4/4/1 1/1/1 3/3/1
f 5/5/2 6/6/2 7/7/2
f 8/8/2 5/5/2 7/7/2
f 9/9/2 8/8/2 7/7/2
f 10/10/3 11/11/3 12/12/3
f 13/13/3 10/10/3 12/12/3
f 14/14/3 15/15/3 16/16/3
f 17/17/3 14/14/3 16/16/3
f 18/18/2 19/19/2 20/20/2
f 21/21/2 18/18/2 20/20/2
f 22/22/2 23/23/2 24/24/2
f 25/25/2 22/22/2 24/24/2
f 26/26/4 27/27/4 28/28/4
f 29/29/4 26/26/4 28/28/4
f 30/30/4 31/31/4 32/32/4
f 33/33/4 30/30/4 32/32/4
f 34/34/5 35/35/5 36/36/5
f 37/37/5 34/34/5 36/36/5
f 38/38/1 39/39/1 40/40/1
f 41/41/1 38/38/1 40/40/1
f 42/42/5 43/43/5 44/44/5
f 45/45/5 42/42/5 44/44/5
f 46/46/2 47/47/2 48/48/2
f 49/49/2 46/46/2 48/48/2
f 50/50/6 51/51/6 52/52/6
f 53/53/6 50/50/6 52/52/6
f 54/54/7 55/55/7 56/56/7
f 57/57/7 54/54/7 56/56/7
f 58/58/8 59/59/8 60/60/8
f 61/61/8 58/58/8 60/60/8
f 62/62/8 63/63/8 64/64/8
f 65/65/8 62/62/8 64/64/8
f 66/66/4 67/67/4 68/68/4
f 69/69/4 66/66/4 68/68/4
f 70/70/4 68/68/4 71/71/4
f 67/67/4 71/71/4 68/68/4
f 72/72/4 71/71/4 67/67/4
f 73/73/4 72/72/4 67/67/4
f 74/74/4 73/73/4 67/67/4
f 75/75/4 74/74/4 67/67/4
f 76/76/4 75/75/4 67/67/4
f 77/77/4 76/76/4 67/67/4
f 78/78/4 77/77/4 67/67/4
f 79/79/4 78/78/4 67/67/4
f 80/80/5 81/81/5 82/82/5
f 83/83/5 80/80/5 82/82/5
f 84/84/1 85/85/1 86/86/1
f 87/87/1 84/84/1 86/86/1
f 88/88/9 89/89/9 90/90/9
f 91/91/9 88/88/9 90/90/9
f 92/92/1 93/93/1 94/94/1
f 95/95/1 92/92/1 94/94/1
f 96/96/9 97/97/9 98/98/9
f 99/99/9 96/96/9 98/98/9
f 100/100/1 101/101/1 102/102/1
f 103/103/1 100/100/1 102/102/1
f 104/104/5 105/105/5 106/106/5
f 107/107/5 104/104/5 106/106/5
f 108/108/1 109/109/1 110/110/1
f 111/111/1 108/108/1 110/110/1
f 112/112/5 113/113/5 114/114/5
f 115/115/5 112/112/5 114/114/5
f 116/116/1 117/117/1 118/118/1
f 119/119/1 116/116/1 118/118/1
f 120/120/4 121/121/4 122/122/4
f 123/123/4 120/120/4 122/122/4
f 124/124/2 125/125/2 126/126/2
f 127/127/2 124/124/2 126/126/2
f 128/128/4 129/129/4 130/130/4
f 131/131/4 128/128/4 130/130/4
f 132/132/2 133/133/2 134/134/2
f 135/135/2 132/132/2 134/134/2
f 136/136/9 137/137/9 138/138/9
f 136/136/9 138/138/9 139/139/9
f 140/140/9 136/136/9 139/139/9
f 140/140/9 139/139/9 141/141/9
f 142/142/9 140/140/9 141/141/9
f 142/142/9 141/141/9 143/143/9
f 137/137/9 142/142/9 143/143/9
f 137/137/9 143/143/9 138/138/9
f 144/144/1 145/145/1 146/146/1
f 147/147/1 144/144/1 146/146/1
f 148/148/8 149/149/8 150/150/8
f 151/151/8 148/148/8 150/150/8
f 152/152/10 153/153/10 154/154/10
f 155/155/10 152/152/10 154/154/10
f 156/156/5 157/157/5 158/158/5
f 159/159/5 156/156/5 158/158/5
f 160/160/11 161/161/11 162/162/11
f 163/163/11 160/160/11 162/162/11
f 164/164/3 165/165/3 166/166/3
f 167/167/3 164/164/3 166/166/3
f 168/168/4 169/169/4 170/170/4
f 171/171/4 168/168/4 170/170/4
f 172/172/8 173/173/8 174/174/8
f 175/175/8 172/172/8 174/174/8
f 176/176/10 177/177/10 178/178/10
f 179/179/10 176/176/10 178/178/10
f 180/180/5 181/181/5 182/182/5
f 183/183/5 180/180/5 182/182/5
f 184/184/11 185/185/11 186/186/11
f 187/187/11 184/184/11 186/186/11
f 188/188/11 189/189/11 190/190/11
f 191/191/11 188/188/11 190/190/11
f 192/192/10 193/193/10 194/194/10
f 195/195/10 192/192/10 194/194/10
f 196/196/8 197/197/8 198/198/8
f 199/199/8 196/196/8 198/198/8
f 200/200/4 201/201/4 202/202/4
f 203/203/4 200/200/4 202/202/4
f 204/204/4 203/203/4 202/202/4
f 205/205/12 206/206/12 207/207/12
f 206/206/12 208/208/12 207/207/12
f 209/209/13 207/207/13 208/208/13
f 210/210/13 209/209/13 208/208/13
f 210/210/9 208/208/9 211/211/9
f 212/212/9 210/210/9 211/211/9
f 212/212/14 211/211/14 213/213/14
f 214/214/14 212/212/14 213/213/14
f 214/214/9 213/213/9 215/215/9
f 216/216/9 214/214/9 215/215/9
f 215/215/15 217/217/15 216/216/15
f 217/217/15 218/218/15 216/216/15
f 218/218/8 217/217/8 219/219/8
f 220/220/8 218/218/8 219/219/8
f 220/220/16 219/219/16 221/221/16
f 222/222/16 220/220/16 221/221/16
f 223/223/17 224/224/17 225/225/17
f 224/224/17 226/226/17 225/225/17
f 224/224/3 217/217/3 226/226/3
f 217/217/3 227/227/3 226/226/3
f 227/227/18 217/217/18 215/215/18
f 228/228/18 227/227/18 215/215/18
f 228/228/9 215/215/9 213/213/9
f 229/229/9 228/228/9 213/213/9
f 229/229/19 213/213/19 211/211/19
f 230/230/19 229/229/19 211/211/19
f 230/230/9 211/211/9 208/208/9
f 206/206/9 230/230/9 208/208/9
f 231/231/20 232/232/20 233/233/20
f 232/232/20 234/234/20 233/233/20
f 232/232/11 235/235/11 234/234/11
f 235/235/11 218/218/11 234/234/11
f 218/218/21 235/235/21 236/236/21
f 216/216/21 218/218/21 236/236/21
f 236/236/9 237/237/9 216/216/9
f 237/237/9 214/214/9 216/216/9
f 237/237/12 238/238/12 214/214/12
f 238/238/12 212/212/12 214/214/12
f 238/238/9 239/239/9 212/212/9
f 239/239/9 210/210/9 212/212/9
f 239/239/19 240/240/19 210/210/19
f 240/240/19 209/209/19 210/210/19
f 240/240/9 241/241/9 209/209/9
f 241/241/9 242/242/9 209/209/9
f 209/209/9 242/242/9 207/207/9
f 242/242/9 243/243/9 207/207/9
f 205/205/9 207/207/9 243/243/9
f 244/244/9 205/205/9 243/243/9
f 245/245/9 246/246/9 247/247/9
f 248/248/9 245/245/9 247/247/9
f 245/245/9 248/248/9 249/249/9
f 250/250/9 245/245/9 249/249/9
f 251/251/9 250/250/9 249/249/9
f 250/250/9 251/251/9 252/252/9
f 251/251/9 247/247/9 252/252/9
f 253/253/9 252/252/9 247/247/9
f 246/246/9 253/253/9 247/247/9
f 253/253/9 246/246/9 254/254/9
f 246/246/9 255/255/9 254/254/9
f 255/255/9 256/256/9 254/254/9
f 256/256/9 255/255/9 252/252/9
f 255/255/9 250/250/9 252/252/9
f 257/257/9 258/258/9 259/259/9
f 257/257/9 260/260/9 258/258/9
f 260/260/9 261/261/9 258/258/9
f 260/260/9 262/262/9 261/261/9
f 262/262/9 263/263/9 261/261/9
f 262/262/9 264/264/9 263/263/9
f 264/264/9 259/259/9 263/263/9
f 264/264/9 257/257/9 259/259/9
f 265/265/2 266/266/2 267/267/2
f 268/268/2 265/265/2 267/267/2
f 269/269/2 268/268/2 267/267/2
f 270/270/2 269/269/2 267/267/2
f 271/271/2 270/270/2 267/267/2
f 272/272/2 271/271/2 267/267/2
f 273/273/2 272/272/2 267/267/2
f 274/274/2 273/273/2 267/267/2
f 275/275/2 274/274/2 267/267/2
f 276/276/2 275/275/2 267/267/2
f 277/277/2 276/276/2 267/267/2
f 278/278/2 277/277/2 267/267/2
f 279/279/22 280/280/22 281/281/22
f 282/282/22 279/279/22 281/281/22
f 283/283/9 282/282/9 281/281/9
f 284/284/9 283/283/9 281/281/9
f 284/284/23 285/285/23 283/283/23
f 285/285/23 286/286/23 283/283/23
